<?xml version="1.0" encoding="UTF-8"?>
<svg width="400px" height="400px" viewBox="0 0 400 400" version="1.1" xmlns="http://www.w3.org/2000/svg" xmlns:xlink="http://www.w3.org/1999/xlink">
    <!-- Generator: Sketch 47.1 (45422) - http://www.bohemiancoding.com/sketch -->
    <title>logo</title>
    <desc>Created with Sketch.</desc>
    <defs></defs>
    <g id="UI-pages" stroke="none" stroke-width="1" fill="none" fill-rule="evenodd" opacity="0.0711050725">
        <g id="homepage-alt-font-2" transform="translate(-83.000000, -907.000000)" fill="#FFFFFF">
            <g id="section-2" transform="translate(0.000000, 841.000000)">
                <g id="logo">
                    <path d="M340.03616,349.195943 C373.404361,326.413625 389.777666,285.790638 381.532166,246.242277 C373.286667,206.693915 342.043287,175.994714 302.349895,168.439153 L302.349895,208.289579 C327.719152,216.420465 344.929227,240.0055 344.929227,266.641158 C344.929227,293.276817 327.719152,316.861852 302.349895,324.992738 L302.349895,366.249786 L378.066592,441.951646 C287.90536,490.644352 175.519819,463.327689 117.779872,378.685815 C60.0399252,294.043941 75.6272161,179.462565 153.880289,113.313505 L225.736736,185.155872 C193.26576,208.219444 177.581966,248.350832 185.811977,287.314571 C194.041988,326.27831 224.616091,356.642826 263.641594,364.610664 L263.641594,324.562613 C238.932137,316.03476 222.352308,292.776236 222.352308,266.641158 C222.352308,240.506081 238.932137,217.247557 263.641594,208.719703 L263.641594,168.322903 L186.264525,90.9586716 C276.584903,41.0667498 390.043037,68.0643105 448.200125,153.286704 C506.357213,238.509098 490.120325,353.977876 410.714766,419.864187 L340.03616,349.195943 Z"></path>
                </g>
            </g>
        </g>
    </g>
</svg>